Coordinates
version=1
nRows=19
nColumns=18
inDegrees=yes

Units are S.I. units (second, meters, Newtons, ...)
Angles are in degrees.

endheader
time	ground_thorax_rot_x	ground_thorax_rot_y	ground_thorax_rot_z	ground_thorax_tx	ground_thorax_ty	ground_thorax_tz	clav_prot	clav_elev	scapula_abduction	scapula_elevation	scapula_upward_rot	scapula_winging	plane_elv	shoulder_elv	axial_rot	elbow_flexion	pro_sup
      2.78000000	     -0.91586772	     -2.77496056	     -8.36270766	     -0.00423131	      0.00403036	     -0.00078352	    -37.82379704	      5.02014933	    -35.99646154	     -0.15836630	     20.75201599	     -2.34398278	     44.09931882	      4.86380009	     -4.60085284	      0.00000000	     34.32000000
      2.79000000	     -1.01229886	     -2.69536320	     -8.36869878	     -0.00423131	      0.00403036	     -0.00078352	    -37.86746848	      4.97025758	    -36.14328727	     -0.16105980	     20.59546638	     -2.31061272	     44.14678260	      4.98403599	     -4.99204453	      0.00000000	     34.32000000
      2.80000000	     -1.05853321	     -2.70031640	     -8.31467311	     -0.00423131	      0.00403036	     -0.00078352	    -37.82911676	      5.02877407	    -36.14642872	     -0.10196263	     20.54164454	     -2.28793517	     44.22687592	      5.00591237	     -5.27735911	      0.00000000	     34.32000000
      2.81000000	     -1.04303951	     -2.71107952	     -8.36334122	     -0.00423131	      0.00403036	     -0.00078352	    -37.81408178	      5.03050491	    -36.13569861	     -0.09529643	     20.52490748	     -2.27609770	     44.23557959	      5.03383526	     -5.31240438	      0.00000000	     34.32000000
      2.82000000	     -1.13222894	     -2.78827271	     -8.34370768	     -0.00423131	      0.00403036	     -0.00078352	    -37.76515821	      4.98161289	    -36.15456879	     -0.08430429	     20.35046205	     -2.19400562	     44.34656449	      5.13699666	     -5.32403553	      0.00000000	     34.32000000
      2.83000000	     -1.09645920	     -2.83614395	     -8.31938855	     -0.00423131	      0.00403036	     -0.00078352	    -37.75872510	      4.96495271	    -36.14909541	     -0.09159257	     20.33310717	     -2.18252412	     44.36102280	      5.13232521	     -5.34572214	      0.00000000	     34.32000000
      2.84000000	     -1.06839864	     -2.88052824	     -8.34600742	     -0.00423131	      0.00403036	     -0.00078352	    -37.77769651	      4.90391909	    -36.14244079	     -0.14102740	     20.34626426	     -2.18386285	     44.43992553	      5.20603655	     -5.38663547	      0.00000000	     34.32000000
      2.85000000	     -1.02372049	     -2.88149055	     -8.35002272	     -0.00423131	      0.00403036	     -0.00078352	    -37.76665454	      4.88425616	    -36.11978017	     -0.15326600	     20.34200746	     -2.17384922	     44.44860283	      5.21754566	     -5.41155122	      0.00000000	     34.32000000
      2.86000000	     -0.89009925	     -2.99641551	     -8.37220487	     -0.00423131	      0.00403036	     -0.00078352	    -37.68193445	      4.93226270	    -35.88398549	     -0.15801334	     20.53869555	     -2.19921944	     44.39983298	      5.12227929	     -4.44311291	      0.00000000	     34.32000000
      2.87000000	     -0.97368659	     -2.99220354	     -8.38773526	     -0.00423131	      0.00403036	     -0.00078352	    -37.70919554	      4.84901126	    -35.87472886	     -0.22634513	     20.56014648	     -2.20256478	     44.43330678	      4.99121544	     -4.96077468	      0.00000000	     34.32000000
      2.88000000	     -0.93087837	     -3.07711184	     -8.38815825	     -0.00423131	      0.00403036	     -0.00078352	    -37.60895639	      4.84738832	    -35.77074365	     -0.20057727	     20.48656184	     -2.13400353	     44.37482335	      5.19697490	     -5.03972914	      0.00000000	     34.32000000
      2.89000000	     -0.88920796	     -3.00259293	     -8.25500834	     -0.00423131	      0.00403036	     -0.00078352	    -37.59862182	      4.98456908	    -35.77841155	     -0.11334074	     20.54327276	     -2.17052199	     44.35626276	      5.09619381	     -4.74038923	      0.00000000	     34.32000000
      2.90000000	     -0.78249814	     -2.97687279	     -8.31310500	     -0.00423131	      0.00403036	     -0.00078352	    -37.62876810	      4.90858110	    -35.77901543	     -0.17559319	     20.56029264	     -2.17601778	     44.35279582	      5.19386535	     -4.78839681	      0.00000000	     34.32000000
      2.91000000	     -0.81109476	     -2.89102077	     -8.45389393	     -0.00423131	      0.00403036	     -0.00078352	    -37.72579677	      4.74299611	    -35.86178799	     -0.30192094	     20.54707996	     -2.18691807	     44.22481953	      5.28009941	     -4.95350733	      0.00000000	     34.32000000
      2.92000000	     -0.80504150	     -2.89261369	     -8.42381730	     -0.00423131	      0.00403036	     -0.00078352	    -37.73687491	      4.70654301	    -35.83917893	     -0.33820630	     20.58347239	     -2.19501176	     44.21228780	      5.34282829	     -4.97570158	      0.00000000	     34.32000000
      2.93000000	     -0.57535159	     -3.02067141	     -8.58750381	     -0.00423131	      0.00403036	     -0.00078352	    -37.73173933	      4.63947170	    -35.61427555	     -0.45514210	     20.86969622	     -2.26100468	     43.79747803	      5.45511038	     -4.81945127	      0.00000000	     34.32000000
      2.94000000	     -0.63070222	     -2.99328826	     -8.58889839	     -0.00423131	      0.00403036	     -0.00078352	    -37.70083298	      4.65960892	    -35.59092800	     -0.43235100	     20.84752412	     -2.24397324	     43.78637475	      5.49353060	     -4.84582081	      0.00000000	     34.32000000
      2.95000000	     -0.74644088	     -3.08677955	     -8.40990579	     -0.00423131	      0.00403036	     -0.00078352	    -37.43369230	      4.83046426	    -35.43950954	     -0.21818834	     20.57496661	     -2.07478645	     43.65147162	      5.83405056	     -4.84485965	      0.00000000	     34.32000000
      2.96000000	     -0.78053021	     -2.96987531	     -8.41648043	     -0.00423131	      0.00403036	     -0.00078352	    -37.40285248	      4.83691958	    -35.40651050	     -0.20676676	     20.55868046	     -2.05676046	     43.65027157	      5.92520802	     -4.86881653	      0.00000000	     34.32000000
